<?xml version="1.0" encoding="UTF-8"?>
<svg width="140px" height="22px" viewBox="0 0 140 22" version="1.1" xmlns="http://www.w3.org/2000/svg" xmlns:xlink="http://www.w3.org/1999/xlink">
    <title>GUPPY</title>
    <g id="Explorations" stroke="none" stroke-width="1" fill="none" fill-rule="evenodd">
        <g id="GUPPY" fill="#000000">
            <path d="M26.3070539,19.9282511 L26.3070539,14.5515695 C26.3070539,13.0224215 27.5518672,12.5538117 29.253112,12.3811659 C29.7925311,12.3318386 30,12.1098655 30,11.838565 C30,11.5919283 29.7510373,11.3206278 29.2116183,11.3206278 C28.340249,11.3206278 25.7676349,11.4686099 22.5726141,11.4686099 C19.3775934,11.4686099 16.8049793,11.3206278 15.93361,11.3206278 C15.3941909,11.3206278 15.1452282,11.5919283 15.1452282,11.838565 C15.1452282,12.1098655 15.3526971,12.3071749 15.8921162,12.3811659 C17.3858921,12.603139 19.253112,13.0224215 19.253112,14.5515695 L19.253112,19.0156951 C19.253112,20.1008969 18.1327801,20.5201794 16.3070539,20.5201794 C11.0788382,20.5201794 7.67634855,16.8452915 7.67634855,11.2219731 C7.67634855,5.32735426 11.2448133,1.47982063 16.7219917,1.47982063 C20.1244813,1.47982063 22.3651452,3.30493274 23.6514523,5.62331839 C23.8174274,5.91928251 24.1493776,6.0426009 24.6473029,6.0426009 C25.1452282,6.0426009 25.4771784,5.89461883 25.4771784,5.62331839 C25.4771784,5.37668161 25.3941909,4.88340807 25.3941909,3.9955157 C25.3941909,2.83632287 25.4771784,2.09641256 25.4771784,1.82511211 C25.4771784,1.03587444 21.2448133,0 16.7219917,0 C6.59751037,0 0,4.41479821 0,11.2219731 C0,17.7578475 6.22406639,22 15.8091286,22 C21.5767635,22 26.3070539,20.9147982 26.3070539,19.9282511 Z" id="Path" fill-rule="nonzero"></path>
            <path d="M52.0776836,2.53652968 L52.0776836,16.2990868 C52.0776836,19.086758 50.1935028,20.3675799 46.5889831,20.3675799 C42.5748588,20.3675799 40.4039548,19.0114155 40.4039548,16.0479452 L40.4039548,2.53652968 C40.4039548,1.43150685 41.7966102,1.20547945 42.6977401,1.07990868 C43.230226,1.00456621 43.6398305,0.853881279 43.6398305,0.47716895 C43.6398305,0.175799087 43.3121469,0 42.6977401,0 C42.0423729,0 40.4858757,0.150684932 37.1271186,0.150684932 C33.5635593,0.150684932 31.5974576,0 30.9420904,0 C30.3276836,0 30,0.175799087 30,0.47716895 C30,0.853881279 30.4096045,1.00456621 30.9420904,1.07990868 C31.8432203,1.20547945 33.2358757,1.43150685 33.2358757,2.53652968 L33.2358757,15.7968037 C33.2358757,19.9155251 38.069209,22 45.8516949,22 C52.1186441,22 55.7641243,19.8150685 55.7641243,16.0479452 L55.7641243,2.53652968 C55.7641243,1.43150685 57.1567797,1.20547945 58.0579096,1.07990868 C58.5903955,1.00456621 59,0.853881279 59,0.47716895 C59,0.175799087 58.6723164,0 58.0579096,0 C57.4025424,0 56.5423729,0.150684932 54.0028249,0.150684932 C51.4632768,0.150684932 50.4392655,0 49.7838983,0 C49.1694915,0 48.8418079,0.175799087 48.8418079,0.47716895 C48.8418079,0.853881279 49.2514124,1.00456621 49.7838983,1.07990868 C50.6850282,1.20547945 52.0776836,1.43150685 52.0776836,2.53652968 Z" id="Path" fill-rule="nonzero"></path>
            <path d="M63.3057851,2.45581395 L63.3057851,19.672093 C63.3057851,20.4906977 62.107438,20.7209302 60.8264463,20.9 C60.2892562,20.9767442 60.0413223,21.1813953 60.0413223,21.4883721 C60.0413223,21.7697674 60.3305785,22 60.8677686,22 C61.4876033,22 63.6363636,21.8465116 67.107438,21.8465116 C70.2066116,21.8465116 72.3966942,22 72.9752066,22 C73.5123967,22 73.8016529,21.7697674 73.8016529,21.4883721 C73.8016529,21.1813953 73.553719,20.9767442 73.0165289,20.9 C71.7355372,20.7209302 70.5371901,20.4906977 70.5371901,19.672093 L70.5371901,13.0976744 C70.5371901,12.7395349 70.7438017,12.6372093 71.2809917,12.8418605 C72.107438,13.1232558 73.1818182,13.4046512 74.7933884,13.4046512 C80.9917355,13.4046512 85,10.6162791 85,6.34418605 C85,2.50697674 80.661157,0 74.0082645,0 C72.5206612,0 69.9173554,0.102325581 66.6942149,0.102325581 C63.5123967,0.102325581 61.6528926,0 60.9090909,0 C60.2479339,0 60,0.230232558 60,0.511627907 C60,0.818604651 60.2066116,1.04883721 60.8677686,1.1255814 C61.9421488,1.25348837 63.3057851,1.56046512 63.3057851,2.45581395 Z M70.5371901,10.0790698 L70.5371901,2.35348837 C70.5371901,1.61162791 71.2809917,1.40697674 72.6446281,1.40697674 C75.8677686,1.40697674 77.3553719,2.99302326 77.3553719,6.42093023 C77.3553719,10.2837209 76.1983471,11.8697674 73.3884298,11.8697674 C71.0743802,11.8697674 70.5371901,10.9488372 70.5371901,10.0790698 Z" id="Shape" fill-rule="nonzero"></path>
            <path d="M88.3057851,2.45581395 L88.3057851,19.672093 C88.3057851,20.4906977 87.107438,20.7209302 85.8264463,20.9 C85.2892562,20.9767442 85.0413223,21.1813953 85.0413223,21.4883721 C85.0413223,21.7697674 85.3305785,22 85.8677686,22 C86.4876033,22 88.6363636,21.8465116 92.107438,21.8465116 C95.2066116,21.8465116 97.3966942,22 97.9752066,22 C98.5123967,22 98.8016529,21.7697674 98.8016529,21.4883721 C98.8016529,21.1813953 98.553719,20.9767442 98.0165289,20.9 C96.7355372,20.7209302 95.5371901,20.4906977 95.5371901,19.672093 L95.5371901,13.0976744 C95.5371901,12.7395349 95.7438017,12.6372093 96.2809917,12.8418605 C97.107438,13.1232558 98.1818182,13.4046512 99.7933884,13.4046512 C105.991736,13.4046512 110,10.6162791 110,6.34418605 C110,2.50697674 105.661157,0 99.0082645,0 C97.5206612,0 94.9173554,0.102325581 91.6942149,0.102325581 C88.5123967,0.102325581 86.6528926,0 85.9090909,0 C85.2479339,0 85,0.230232558 85,0.511627907 C85,0.818604651 85.2066116,1.04883721 85.8677686,1.1255814 C86.9421488,1.25348837 88.3057851,1.56046512 88.3057851,2.45581395 Z M95.5371901,10.0790698 L95.5371901,2.35348837 C95.5371901,1.61162791 96.2809917,1.40697674 97.6446281,1.40697674 C100.867769,1.40697674 102.355372,2.99302326 102.355372,6.42093023 C102.355372,10.2837209 101.198347,11.8697674 98.3884298,11.8697674 C96.0743802,11.8697674 95.5371901,10.9488372 95.5371901,10.0790698 Z" id="Shape" fill-rule="nonzero"></path>
            <path d="M131.338235,2.89069767 L126.820856,8.87674419 C126.65508,9.08139535 126.489305,9.08139535 126.323529,8.87674419 L121.723262,3.01860465 C120.894385,1.96976744 121.184492,1.40697674 123.298128,1.1 C123.878342,1.02325581 124.209893,0.844186047 124.209893,0.511627907 C124.209893,0.204651163 123.836898,0 123.381016,0 C122.386364,0 120.645722,0.127906977 116.21123,0.127906977 C112.564171,0.127906977 110.740642,0 109.828877,0 C109.372995,0 109,0.204651163 109,0.511627907 C109,0.895348837 109.497326,1.02325581 109.994652,1.1 C111.445187,1.30465116 112.398396,1.53488372 113.144385,2.43023256 L121.516043,12.6116279 L121.516043,19.672093 C121.516043,20.4906977 120.314171,20.7209302 119.029412,20.9 C118.490642,20.9767442 118.241979,21.1813953 118.241979,21.4883721 C118.241979,21.7697674 118.532086,22 119.070856,22 C119.692513,22 121.847594,21.8465116 125.328877,21.8465116 C128.437166,21.8465116 130.63369,22 131.213904,22 C131.752674,22 132.042781,21.7697674 132.042781,21.4883721 C132.042781,21.1813953 131.794118,20.9767442 131.255348,20.9 C129.970588,20.7209302 128.768717,20.4906977 128.768717,19.672093 L128.768717,11.3581395 L135.524064,2.60930233 C136.394385,1.48372093 137.471925,1.30465116 139.171123,1.04883721 C139.668449,0.972093023 140,0.818604651 140,0.486046512 C140,0.179069767 139.668449,0 139.212567,0 C138.590909,0 137.30615,0.127906977 134.363636,0.127906977 C131.255348,0.127906977 129.929144,0 129.141711,0 C128.768717,0 128.395722,0.204651163 128.395722,0.511627907 C128.395722,0.844186047 128.768717,1.04883721 129.266043,1.1 C131.628342,1.38139535 132.167112,1.81627907 131.338235,2.89069767 Z" id="Path" fill-rule="nonzero"></path>
        </g>
    </g>
</svg>