<?xml version="1.0" encoding="UTF-8"?>
<svg width="82px" height="23px" viewBox="0 0 82 23" version="1.1" xmlns="http://www.w3.org/2000/svg" xmlns:xlink="http://www.w3.org/1999/xlink">
    <title>GUPPY</title>
    <g id="Explorations" stroke="none" stroke-width="1" fill="none" fill-rule="evenodd">
        <g id="GUPPY" transform="translate(0.88, -2)" fill="#000000" fill-rule="nonzero">
            <path d="M15.216,22.368 L15.216,17.136 C15.216,15.648 15.936,15.192 16.92,15.024 C17.232,14.976 17.352,14.76 17.352,14.496 C17.352,14.256 17.208,13.992 16.896,13.992 C16.392,13.992 14.904,14.136 13.056,14.136 C11.208,14.136 9.72,13.992 9.216,13.992 C8.904,13.992 8.76,14.256 8.76,14.496 C8.76,14.76 8.88,14.952 9.192,15.024 C10.056,15.24 11.136,15.648 11.136,17.136 L11.136,21.48 C11.136,22.536 10.488,22.944 9.432,22.944 C6.408,22.944 4.44,19.368 4.44,13.896 C4.44,8.16 6.504,4.416 9.672,4.416 C11.64,4.416 12.936,6.192 13.68,8.448 C13.776,8.736 13.968,8.856 14.256,8.856 C14.544,8.856 14.736,8.712 14.736,8.448 C14.736,8.208 14.688,7.728 14.688,6.864 C14.688,5.736 14.736,5.016 14.736,4.752 C14.736,3.984 12.288,2.976 9.672,2.976 C3.816,2.976 0,7.272 0,13.896 C0,20.256 3.6,24.384 9.144,24.384 C12.48,24.384 15.216,23.328 15.216,22.368 Z" id="Path"></path>
            <path d="M30.168,5.784 L30.168,18.936 C30.168,21.6 29.064,22.824 26.952,22.824 C24.6,22.824 23.328,21.528 23.328,18.696 L23.328,5.784 C23.328,4.728 24.144,4.512 24.672,4.392 C24.984,4.32 25.224,4.176 25.224,3.816 C25.224,3.528 25.032,3.36 24.672,3.36 C24.288,3.36 23.376,3.504 21.408,3.504 C19.32,3.504 18.168,3.36 17.784,3.36 C17.424,3.36 17.232,3.528 17.232,3.816 C17.232,4.176 17.472,4.32 17.784,4.392 C18.312,4.512 19.128,4.728 19.128,5.784 L19.128,18.456 C19.128,22.392 21.96,24.384 26.52,24.384 C30.192,24.384 32.328,22.296 32.328,18.696 L32.328,5.784 C32.328,4.728 33.144,4.512 33.672,4.392 C33.984,4.32 34.224,4.176 34.224,3.816 C34.224,3.528 34.032,3.36 33.672,3.36 C33.288,3.36 32.784,3.504 31.296,3.504 C29.808,3.504 29.208,3.36 28.824,3.36 C28.464,3.36 28.272,3.528 28.272,3.816 C28.272,4.176 28.512,4.32 28.824,4.392 C29.352,4.512 30.168,4.728 30.168,5.784 Z" id="Path"></path>
            <path d="M36.12,5.664 L36.12,21.816 C36.12,22.584 35.424,22.8 34.68,22.968 C34.368,23.04 34.224,23.232 34.224,23.52 C34.224,23.784 34.392,24 34.704,24 C35.064,24 36.312,23.856 38.328,23.856 C40.128,23.856 41.4,24 41.736,24 C42.048,24 42.216,23.784 42.216,23.52 C42.216,23.232 42.072,23.04 41.76,22.968 C41.016,22.8 40.32,22.584 40.32,21.816 L40.32,15.648 C40.32,15.312 40.44,15.216 40.752,15.408 C41.232,15.672 41.856,15.936 42.792,15.936 C46.392,15.936 48.72,13.32 48.72,9.312 C48.72,5.712 46.2,3.36 42.336,3.36 C41.472,3.36 39.96,3.456 38.088,3.456 C36.24,3.456 35.16,3.36 34.728,3.36 C34.344,3.36 34.2,3.576 34.2,3.84 C34.2,4.128 34.32,4.344 34.704,4.416 C35.328,4.536 36.12,4.824 36.12,5.664 Z M40.32,12.816 L40.32,5.568 C40.32,4.872 40.752,4.68 41.544,4.68 C43.416,4.68 44.28,6.168 44.28,9.384 C44.28,13.008 43.608,14.496 41.976,14.496 C40.632,14.496 40.32,13.632 40.32,12.816 Z" id="Shape"></path>
            <path d="M50.28,5.664 L50.28,21.816 C50.28,22.584 49.584,22.8 48.84,22.968 C48.528,23.04 48.384,23.232 48.384,23.52 C48.384,23.784 48.552,24 48.864,24 C49.224,24 50.472,23.856 52.488,23.856 C54.288,23.856 55.56,24 55.896,24 C56.208,24 56.376,23.784 56.376,23.52 C56.376,23.232 56.232,23.04 55.92,22.968 C55.176,22.8 54.48,22.584 54.48,21.816 L54.48,15.648 C54.48,15.312 54.6,15.216 54.912,15.408 C55.392,15.672 56.016,15.936 56.952,15.936 C60.552,15.936 62.88,13.32 62.88,9.312 C62.88,5.712 60.36,3.36 56.496,3.36 C55.632,3.36 54.12,3.456 52.248,3.456 C50.4,3.456 49.32,3.36 48.888,3.36 C48.504,3.36 48.36,3.576 48.36,3.84 C48.36,4.128 48.48,4.344 48.864,4.416 C49.488,4.536 50.28,4.824 50.28,5.664 Z M54.48,12.816 L54.48,5.568 C54.48,4.872 54.912,4.68 55.704,4.68 C57.576,4.68 58.44,6.168 58.44,9.384 C58.44,13.008 57.768,14.496 56.136,14.496 C54.792,14.496 54.48,13.632 54.48,12.816 Z" id="Shape"></path>
            <path d="M75.456,6.072 L72.84,11.688 C72.744,11.88 72.648,11.88 72.552,11.688 L69.888,6.192 C69.408,5.208 69.576,4.68 70.8,4.392 C71.136,4.32 71.328,4.152 71.328,3.84 C71.328,3.552 71.112,3.36 70.848,3.36 C70.272,3.36 69.264,3.48 66.696,3.48 C64.584,3.48 63.528,3.36 63,3.36 C62.736,3.36 62.52,3.552 62.52,3.84 C62.52,4.2 62.808,4.32 63.096,4.392 C63.936,4.584 64.488,4.8 64.92,5.64 L69.768,15.192 L69.768,21.816 C69.768,22.584 69.072,22.8 68.328,22.968 C68.016,23.04 67.872,23.232 67.872,23.52 C67.872,23.784 68.04,24 68.352,24 C68.712,24 69.96,23.856 71.976,23.856 C73.776,23.856 75.048,24 75.384,24 C75.696,24 75.864,23.784 75.864,23.52 C75.864,23.232 75.72,23.04 75.408,22.968 C74.664,22.8 73.968,22.584 73.968,21.816 L73.968,14.016 L77.88,5.808 C78.384,4.752 79.008,4.584 79.992,4.344 C80.28,4.272 80.472,4.128 80.472,3.816 C80.472,3.528 80.28,3.36 80.016,3.36 C79.656,3.36 78.912,3.48 77.208,3.48 C75.408,3.48 74.64,3.36 74.184,3.36 C73.968,3.36 73.752,3.552 73.752,3.84 C73.752,4.152 73.968,4.344 74.256,4.392 C75.624,4.656 75.936,5.064 75.456,6.072 Z" id="Path"></path>
        </g>
    </g>
</svg>